<svg version="1.1" id="Layer_1" xmlns="http://www.w3.org/2000/svg" xmlns:xlink="http://www.w3.org/1999/xlink" x="0px" y="0px"
	 width="100%" viewBox="0 0 278 91" enable-background="new 0 0 278 91" xml:space="preserve">
<path fill="#FEFDFD" opacity="1.000000" stroke="none" 
	d="
M191.000000,92.000000 
	C128.666687,92.000000 66.833298,91.963875 5.000274,92.096809 
	C1.575605,92.104172 0.877827,91.427483 0.899794,87.999428 
	C1.078143,60.167244 1.058683,32.333118 0.914786,4.500540 
	C0.899356,1.516114 1.517552,0.914876 4.499990,0.918191 
	C94.833168,1.018593 185.166504,1.018572 275.499695,0.918260 
	C278.481262,0.914950 279.100586,1.514962 279.085236,4.500236 
	C278.941559,32.499489 278.941681,60.500076 279.085144,88.499336 
	C279.100433,91.483345 278.485138,92.100594 275.499817,92.085274 
	C247.500473,91.941582 219.500076,92.000000 191.000000,92.000000 
z"/>
<path fill="#DD1812" opacity="1.000000" stroke="none" 
	d="
M251.475677,55.356544 
	C253.008118,51.082291 254.825516,47.254505 255.624008,43.224815 
	C256.659698,37.998100 259.586975,36.983913 264.812408,38.249580 
	C262.606079,44.073376 260.437103,49.848305 258.230377,55.608776 
	C256.213287,60.874218 254.382141,66.226944 252.055405,71.353470 
	C249.425232,77.148552 245.086136,79.462105 239.262711,78.617874 
	C237.519318,78.365112 235.071762,78.789352 235.698166,75.348007 
	C236.176193,72.721725 236.862854,71.905304 239.766632,72.139412 
	C245.583267,72.608360 247.575821,69.553917 245.490540,64.107277 
	C242.702606,56.825409 239.790817,49.589157 237.142822,42.257252 
	C236.681473,40.979824 234.261993,38.706615 237.225525,38.025833 
	C239.347748,37.538319 242.609756,36.334911 243.873413,40.195183 
	C245.524582,45.239288 247.348038,50.229065 249.213120,55.198776 
	C249.482803,55.917377 249.820358,58.884171 251.475677,55.356544 
z"/>
<path fill="#DE2019" opacity="1.000000" stroke="none" 
	d="
M208.043854,44.819443 
	C209.522064,44.819508 210.524551,44.887585 211.514664,44.805885 
	C213.776077,44.619286 215.191940,44.910187 215.172470,47.875450 
	C215.154144,50.669983 214.077805,51.097805 211.643463,51.126263 
	C207.887985,51.170166 202.773956,49.372101 200.747070,51.931858 
	C198.858078,54.317482 199.922150,59.220852 200.090546,62.997875 
	C200.219193,65.883530 199.221970,66.697701 196.433884,66.666069 
	C193.712143,66.635201 192.184326,66.396461 192.258514,62.971657 
	C192.481537,52.675591 192.413467,42.370701 192.287903,32.071335 
	C192.255280,29.396038 192.806473,28.148670 195.821884,28.258329 
	C201.629211,28.469517 207.452576,28.427023 213.263351,28.270161 
	C215.813293,28.201326 216.767593,28.920652 216.782013,31.607603 
	C216.796844,34.368889 215.697525,35.013550 213.215714,34.882107 
	C210.067871,34.715389 206.872940,35.123341 203.755707,34.772930 
	C199.907257,34.340324 199.698090,36.486420 200.040405,39.219276 
	C200.339127,41.603951 198.443863,45.423317 203.577606,44.841228 
	C204.889847,44.692444 206.233353,44.819256 208.043854,44.819443 
z"/>
<path fill="#DE2019" opacity="1.000000" stroke="none" 
	d="
M109.914200,51.057793 
	C100.027222,51.057789 100.101685,51.058788 99.971909,60.724976 
	C99.937767,63.267330 101.638733,67.024063 96.211205,66.701546 
	C93.231285,66.524475 92.202423,65.898193 92.264313,62.755325 
	C92.463814,52.624645 92.425026,42.486362 92.283104,32.353737 
	C92.243202,29.505226 92.728836,28.100933 96.038902,28.247736 
	C101.842430,28.505121 107.669815,28.450640 113.478706,28.263256 
	C116.289024,28.172604 116.754509,29.395798 116.763718,31.823225 
	C116.773102,34.292713 115.807045,35.007702 113.499062,34.876480 
	C110.849411,34.725838 108.143646,35.138920 105.535271,34.778587 
	C100.889641,34.136829 99.668266,35.962139 99.879456,40.440098 
	C100.038094,43.803802 100.706337,45.329685 104.294304,44.864662 
	C106.255051,44.610542 108.295258,44.646793 110.263954,44.868645 
	C112.177223,45.084248 114.991432,43.381546 115.185631,47.620651 
	C115.381989,51.906860 112.746895,50.993919 109.914200,51.057793 
z"/>
<path fill="#DD1A13" opacity="1.000000" stroke="none" 
	d="
M183.922745,53.231010 
	C182.222488,53.630928 180.637421,53.715500 178.667252,53.696415 
	C174.985474,52.425674 171.537201,53.295139 167.982666,53.212723 
	C164.571396,56.560314 167.486618,58.430004 169.353180,59.736988 
	C172.162659,61.704197 175.734589,61.752312 178.063110,59.129623 
	C180.836243,56.006184 182.725815,58.300751 184.094299,59.857578 
	C185.722733,61.710129 183.330597,63.030949 182.156601,64.084053 
	C175.106049,70.408623 162.424545,66.832344 159.602737,57.810837 
	C156.923767,49.245892 160.392700,40.604088 167.520935,38.085114 
	C177.706497,34.485737 185.080994,39.920937 185.130951,51.571960 
	C184.692032,52.304035 184.365967,52.610897 183.922745,53.231010 
z"/>
<path fill="#DC0F09" opacity="1.000000" stroke="none" 
	d="
M226.882507,66.531075 
	C223.259613,65.035049 222.247498,62.257202 222.216827,59.126408 
	C222.119095,49.156696 222.268448,39.183868 222.101715,29.215939 
	C222.051285,26.200851 223.592209,26.178286 225.813736,26.133818 
	C228.172836,26.086592 229.486816,26.430674 229.434723,29.313698 
	C229.275650,38.118256 229.333649,46.927971 229.413376,55.734718 
	C229.432755,57.876099 228.616394,60.447025 232.274506,61.036709 
	C234.286469,61.361034 233.762360,63.816380 233.767319,65.311401 
	C233.773376,67.140717 231.996353,66.956467 230.718018,66.978882 
	C229.566086,66.999069 228.410233,66.796356 226.882507,66.531075 
z"/>
<path fill="#DC140C" opacity="1.000000" stroke="none" 
	d="
M140.967728,66.531868 
	C137.639420,66.840958 137.899704,64.842064 137.904388,62.967640 
	C137.922302,55.801064 137.894440,48.634342 137.925659,41.467854 
	C137.933090,39.764839 137.275650,37.576679 140.374237,37.806664 
	C142.716949,37.980541 145.780533,36.898041 144.961487,41.573227 
	C147.080185,40.067039 148.149658,37.811035 150.539459,37.786694 
	C152.470642,37.767017 155.448853,36.300812 155.653107,39.594028 
	C155.782608,41.681999 156.051544,45.008457 151.459656,44.285183 
	C147.350693,43.637978 145.578979,46.947655 145.276810,50.583546 
	C144.960251,54.392735 145.102921,58.241879 145.088181,62.073727 
	C145.078461,64.604294 144.666687,66.739388 140.967728,66.531868 
z"/>
<path fill="#DF2722" opacity="1.000000" stroke="none" 
	d="
M122.787094,38.176559 
	C129.746368,37.574356 129.747116,37.574356 129.747238,44.213593 
	C129.747345,50.504028 129.602631,56.799133 129.807785,63.082844 
	C129.903931,66.027992 128.797867,66.752129 126.070602,66.687172 
	C123.566589,66.627533 122.078270,66.396523 122.179375,63.237022 
	C122.443848,54.972649 122.381851,46.697830 122.787094,38.176559 
z"/>
<path fill="#520908" opacity="1.000000" stroke="none" 
	d="
M61.525620,59.555347 
	C58.859188,60.471348 57.857853,63.942272 54.461086,64.177353 
	C52.785828,63.842472 51.585049,63.192711 50.074554,62.402702 
	C48.675541,59.272217 50.949760,57.816826 52.686493,55.773178 
	C53.963604,54.551544 54.709911,53.329418 56.051018,52.174255 
	C56.567036,51.890388 56.791752,51.812088 57.356968,51.840874 
	C59.209370,49.314186 62.133362,48.273041 64.515335,46.126244 
	C65.292862,46.051575 65.551498,45.846348 65.810822,45.201389 
	C65.950356,44.952106 66.000801,44.994026 65.969154,44.985603 
	C66.513771,44.488655 67.053131,43.960266 67.814255,43.255013 
	C68.029503,43.071106 68.008392,43.004414 68.039093,43.021172 
	C68.450363,42.557957 69.062630,42.540825 69.642899,42.022133 
	C69.726692,41.751892 69.772789,41.702866 69.786903,41.672321 
	C73.326195,42.668659 73.335983,42.752247 70.263916,47.786491 
	C66.707024,51.617966 62.069698,53.601620 58.797562,57.663174 
	C58.656303,58.358883 58.236355,58.389652 58.033291,58.619102 
	C58.302944,58.854492 58.459175,58.738438 58.675552,58.007534 
	C60.891121,56.196869 61.715343,56.735023 61.525620,59.555347 
z"/>
<path fill="#9F0A0A" opacity="1.000000" stroke="none" 
	d="
M41.435921,30.227919 
	C40.947109,27.236319 39.299397,24.725863 40.069420,21.429916 
	C41.854153,19.459724 43.091339,21.031141 44.812843,21.631323 
	C46.073799,23.106922 46.992683,24.618721 47.987106,26.453207 
	C48.208591,27.098955 48.400707,27.391716 48.836014,27.830490 
	C49.033009,28.006815 48.992664,28.005728 48.998207,27.986324 
	C49.661148,28.982378 50.161705,30.074329 50.614971,31.564240 
	C50.578472,32.659294 50.274998,33.286411 49.492615,34.017677 
	C48.670898,34.627068 48.266369,33.786495 47.738708,34.050312 
	C48.007999,34.219933 48.287075,34.371841 48.884918,34.582077 
	C50.207886,35.238239 50.765598,36.208401 51.503944,37.464138 
	C52.081257,38.589314 52.366341,39.459553 52.605202,40.707092 
	C52.646133,43.140869 53.482140,45.218906 52.557533,47.629379 
	C52.195446,48.088825 52.007359,48.235699 51.468445,48.454620 
	C50.641750,48.469791 50.208237,48.306355 49.612259,47.740902 
	C48.517864,44.965729 47.615906,42.472023 46.161415,39.866486 
	C45.893814,39.408581 45.785088,39.227921 45.507607,38.782402 
	C45.107868,38.169956 44.880398,37.820076 44.484680,37.206985 
	C43.982185,36.412960 43.667782,35.869610 43.129639,35.087662 
	C41.922665,33.561306 42.229435,31.889259 41.435921,30.227919 
z"/>
<path fill="#510303" opacity="1.000000" stroke="none" 
	d="
M33.058601,64.291534 
	C32.418320,63.394539 31.926674,62.851482 31.244247,62.084507 
	C30.344154,60.740555 28.711790,59.796524 30.014677,58.220490 
	C30.692345,57.400757 31.412563,58.203011 32.215450,58.907257 
	C32.772625,59.321712 32.598701,59.760567 32.827988,59.990196 
	C32.870224,60.032494 33.006542,59.872330 32.997238,59.749058 
	C32.947071,59.084282 33.032288,60.022915 32.470352,59.227348 
	C29.565769,55.215927 25.510902,53.050304 21.711655,50.035057 
	C21.412529,49.226189 21.436951,48.734596 21.793301,47.929329 
	C22.685917,47.147957 23.436171,46.940491 24.637047,46.932716 
	C25.833879,47.054565 26.606688,47.243687 27.689482,47.768471 
	C28.033806,47.971447 27.999956,48.000526 28.008869,47.980087 
	C28.209589,48.219975 28.425957,48.457962 28.863361,48.814117 
	C29.059834,48.954620 29.008932,49.004826 29.026793,48.974354 
	C29.301794,49.270626 29.553787,49.601288 29.911427,50.227695 
	C30.529608,50.677837 31.036217,50.836742 31.808548,50.956604 
	C35.114578,50.663933 35.641945,53.481018 37.358723,55.368484 
	C38.025543,56.438164 38.369900,57.277336 38.701683,58.475853 
	C39.019596,60.385677 37.749840,61.616306 37.736382,63.481609 
	C37.640808,64.285446 37.469326,64.716064 36.925884,65.334068 
	C35.288086,65.999374 34.140076,65.729645 33.058601,64.291534 
z"/>
<path fill="#DC1812" opacity="1.000000" stroke="none" 
	d="
M51.991608,41.296112 
	C51.659649,40.155304 51.359772,39.385803 51.032539,38.306103 
	C51.215755,36.136028 50.099792,34.435249 50.195000,32.266659 
	C49.674648,30.865253 49.313732,29.767273 48.978287,28.318108 
	C55.252781,34.321426 59.303440,41.470131 57.478745,51.384201 
	C57.697472,51.947964 57.282730,52.073112 57.196918,52.061043 
	C55.950565,51.523563 54.617138,52.887161 53.341370,51.420593 
	C52.765419,47.972523 53.062710,44.739136 51.991608,41.296112 
z"/>
<path fill="#150E0E" opacity="1.000000" stroke="none" 
	d="
M50.191532,73.767380 
	C49.967941,73.987709 49.600605,74.282181 49.372086,74.338669 
	C48.211643,74.101288 47.759041,74.677650 47.155777,75.560371 
	C45.973923,77.395782 45.171146,80.115005 43.227669,76.027390 
	C41.437477,73.979744 39.500618,72.431190 38.361877,69.809380 
	C37.947697,69.123009 37.729591,68.716515 37.405899,67.966980 
	C37.122147,66.915436 37.157295,66.211464 37.606880,65.208107 
	C38.968708,64.272499 40.109341,64.737541 41.583038,65.179901 
	C43.870453,67.515808 45.830505,67.515572 48.136242,65.217461 
	C49.499916,65.045570 50.424397,65.256676 51.398415,66.280884 
	C51.896626,67.261803 51.980087,67.969269 51.846638,69.031273 
	C51.012520,70.656563 50.768330,72.119591 50.191532,73.767380 
z"/>
<path fill="#E71710" opacity="1.000000" stroke="none" 
	d="
M37.253689,56.233307 
	C34.768578,55.119633 34.451595,52.503944 32.334320,51.112442 
	C32.399593,47.188549 31.405983,43.405605 32.729225,39.351833 
	C33.568684,38.278744 34.080322,37.345192 35.580505,37.797222 
	C36.178795,40.096981 36.486588,42.171116 36.875671,44.629566 
	C37.444790,47.612411 37.008499,50.412971 38.833115,53.058678 
	C39.241203,53.784809 39.387474,54.237991 39.423786,55.079041 
	C39.000755,56.191090 38.387413,56.505367 37.253689,56.233307 
z"/>
<path fill="#7B0A0B" opacity="1.000000" stroke="none" 
	d="
M32.969982,59.643921 
	C32.179253,59.537766 30.915506,58.496727 30.614559,58.725002 
	C29.619923,59.479446 30.975653,60.350716 31.018272,61.556911 
	C26.948053,60.055363 23.723862,57.151428 20.782175,53.409863 
	C20.853621,52.142033 20.841087,51.124210 21.833420,50.121094 
	C26.687590,51.942619 31.082512,54.154163 32.969982,59.643921 
z"/>
<path fill="#D50905" opacity="1.000000" stroke="none" 
	d="
M39.455444,55.025822 
	C39.014919,54.619518 38.895267,54.420464 38.604904,54.129692 
	C36.878975,51.430019 36.730625,48.663773 37.698273,45.376991 
	C38.002457,44.638645 38.154434,44.374237 38.623405,44.070671 
	C41.554928,42.789352 41.220379,39.295536 43.879787,37.879444 
	C45.378674,39.202282 45.182304,40.885265 45.818161,42.702965 
	C46.494411,46.985161 44.407887,50.262169 43.143608,54.090988 
	C41.954067,55.043301 40.934486,55.311722 39.455444,55.025822 
z"/>
<path fill="#DD1812" opacity="1.000000" stroke="none" 
	d="
M128.604675,33.554062 
	C125.930267,34.654079 123.616570,34.665749 122.192932,32.218487 
	C121.217079,30.540966 121.282875,28.601725 122.844810,27.167873 
	C124.670364,25.492031 126.849190,25.306677 128.745392,26.876331 
	C131.123230,28.844664 130.966644,31.140224 128.604675,33.554062 
z"/>
<path fill="#730406" opacity="1.000000" stroke="none" 
	d="
M61.973679,59.762550 
	C61.127453,58.202332 60.467571,56.872368 58.299118,58.857239 
	C57.747295,54.892048 61.238609,53.729160 63.706455,51.777081 
	C65.234222,50.568611 66.819351,49.432655 68.681870,48.113674 
	C70.408958,49.349979 69.643471,50.907307 69.233307,52.752705 
	C67.413742,55.849812 64.839859,57.734165 61.973679,59.762550 
z"/>
<path fill="#B02727" opacity="1.000000" stroke="none" 
	d="
M69.443771,52.935898 
	C68.007393,51.615917 69.212517,50.117466 69.023071,48.302208 
	C68.643753,45.758644 73.408615,44.775444 70.113480,41.790428 
	C70.097313,39.754734 72.029999,38.378944 73.035187,38.651066 
	C74.968254,39.174385 73.955406,41.379681 73.911888,42.889137 
	C73.801895,46.705360 71.897812,49.810337 69.443771,52.935898 
z"/>
<path fill="#B03030" opacity="1.000000" stroke="none" 
	d="
M44.127026,37.899559 
	C41.969856,39.726288 44.067646,44.226170 39.222374,43.944729 
	C39.323116,39.549587 42.441330,35.571198 41.150608,30.393955 
	C43.905796,30.606159 42.632626,33.386818 43.988701,35.164127 
	C44.557030,36.187084 44.512630,36.917641 44.127026,37.899559 
z"/>
<path fill="#BB2B2A" opacity="1.000000" stroke="none" 
	d="
M16.791027,44.226917 
	C15.381696,41.130844 14.495352,38.314346 16.322538,34.653294 
	C17.560783,38.573090 19.905989,41.099911 22.794590,43.595978 
	C22.786833,44.083652 22.615187,44.287510 22.088688,44.677605 
	C20.135609,45.307571 18.568209,45.331821 16.791027,44.226917 
z"/>
<path fill="#5C0304" opacity="1.000000" stroke="none" 
	d="
M50.862339,70.231682 
	C50.935432,69.143143 50.960636,68.447487 51.012299,67.404686 
	C51.656826,66.138031 52.387157,65.344696 53.766777,64.864426 
	C56.943569,64.811089 59.797115,64.811089 63.448624,64.811089 
	C61.942047,67.099228 60.676949,68.333267 58.479538,69.023041 
	C55.767151,69.971611 53.460346,71.095375 50.862339,70.231682 
z"/>
<path fill="#8C090A" opacity="1.000000" stroke="none" 
	d="
M37.448696,64.776054 
	C37.774246,65.826256 37.899364,66.545174 38.103882,67.620544 
	C35.741829,70.288811 33.241337,68.774590 30.358967,68.085785 
	C28.469156,67.573631 27.414268,66.530785 26.800161,65.079033 
	C28.944031,65.647125 30.339489,63.675354 32.525692,63.960155 
	C33.993332,64.317108 35.076691,64.696617 36.508713,65.094696 
	C36.987671,64.890434 37.117966,64.667610 37.448696,64.776054 
z"/>
<path fill="#421F1F" opacity="1.000000" stroke="none" 
	d="
M50.580383,69.904388 
	C53.063240,69.690163 55.091194,68.532104 57.723694,69.057327 
	C55.686932,70.757561 53.785538,73.244690 50.347733,73.991470 
	C50.548275,72.682655 47.665272,71.134003 50.580383,69.904388 
z"/>
<path fill="#230202" opacity="1.000000" stroke="none" 
	d="
M54.100220,64.661667 
	C53.625347,65.894196 52.944584,66.736649 51.370850,67.005981 
	C50.439049,66.090118 49.464039,66.007774 48.102524,65.943619 
	C46.766651,64.094528 47.294937,62.775249 49.505241,61.912979 
	C51.355511,62.194397 53.185619,61.405231 54.030731,63.831764 
	C54.104912,64.212769 54.110413,64.512253 54.100220,64.661667 
z"/>
<path fill="#A01213" opacity="1.000000" stroke="none" 
	d="
M22.112549,49.596073 
	C21.855816,50.849060 21.575567,51.786690 20.972168,52.907394 
	C18.630602,51.421837 17.703440,49.094364 16.803156,46.382988 
	C18.059265,45.203861 19.140070,46.250599 20.611689,46.478378 
	C21.283649,46.782127 21.589937,47.062763 21.924671,47.712173 
	C22.037128,48.437634 22.063082,48.859173 22.112549,49.596073 
z"/>
<path fill="#A61515" opacity="1.000000" stroke="none" 
	d="
M45.164711,21.322300 
	C43.296516,24.503298 42.459095,19.861919 40.490364,21.010185 
	C41.225468,18.713942 42.308739,16.418905 43.838287,13.178386 
	C44.018875,15.277326 44.103123,16.256516 44.130898,17.610752 
	C43.810669,18.120438 43.686695,18.294149 43.702324,18.506947 
	C43.719395,18.739334 43.762238,18.855534 44.089336,18.960220 
	C44.623280,19.726429 44.898895,20.387953 45.164711,21.322300 
z"/>
<path fill="#6D2525" opacity="1.000000" stroke="none" 
	d="
M38.886703,68.740410 
	C40.483688,70.934738 41.765770,73.003143 43.066536,75.416016 
	C40.606365,74.742714 38.127514,73.724930 35.367352,72.449417 
	C35.696049,71.099319 36.882282,71.091454 37.724033,70.424484 
	C37.562271,69.403236 37.874710,68.883202 38.886703,68.740410 
z"/>
<path fill="#DA0500" opacity="1.000000" stroke="none" 
	d="
M168.174942,53.672745 
	C170.923203,50.758270 174.360703,51.847481 178.036438,53.214767 
	C175.045425,53.648991 171.808716,53.705219 168.174942,53.672745 
z"/>
<path fill="#720F10" opacity="1.000000" stroke="none" 
	d="
M39.082211,68.665390 
	C38.822124,69.301628 38.442642,69.736916 38.020821,70.469398 
	C36.446861,71.427574 34.961811,70.960281 33.127785,70.402634 
	C31.949022,69.679352 31.115612,69.134056 30.123232,68.334343 
	C32.401260,66.529922 34.881229,68.743301 37.755337,67.986420 
	C38.495029,68.056442 38.754875,68.218925 39.082211,68.665390 
z"/>
<path fill="#A6393A" opacity="1.000000" stroke="none" 
	d="
M21.159599,46.777489 
	C19.346437,48.389961 18.437880,46.813229 17.071959,46.121246 
	C16.123566,45.677044 16.182096,45.081585 16.389515,44.206512 
	C17.971609,43.973907 19.423363,44.014542 21.239655,44.047073 
	C21.820419,44.128029 22.036648,44.217087 22.372934,44.636436 
	C22.474321,45.725658 22.125984,46.298935 21.159599,46.777489 
z"/>
<path fill="#E54D47" opacity="1.000000" stroke="none" 
	d="
M37.706642,44.972336 
	C38.024178,47.692287 38.091537,50.420399 38.315941,53.581581 
	C35.581844,51.720581 35.948166,48.627705 36.673004,45.265213 
	C37.123463,45.002754 37.289967,44.991631 37.706642,44.972336 
z"/>
<path fill="#C61E1C" opacity="1.000000" stroke="none" 
	d="
M35.946720,37.622566 
	C35.084217,38.269081 34.297436,38.515312 33.218258,38.877930 
	C33.059593,36.507259 34.204956,34.446144 36.022438,32.507465 
	C36.022438,34.079071 36.022438,35.650677 35.946720,37.622566 
z"/>
<path fill="#AF7171" opacity="1.000000" stroke="none" 
	d="
M32.818848,70.506134 
	C34.263161,70.393929 35.832729,69.613235 37.605831,70.703751 
	C38.476757,73.169182 36.381142,71.383232 35.459335,72.143585 
	C34.022327,72.232269 33.326889,71.687737 32.818848,70.506134 
z"/>
<path fill="#421F1F" opacity="1.000000" stroke="none" 
	d="
M47.211990,75.741699 
	C47.184399,74.698479 46.495937,72.718185 49.012512,74.098640 
	C48.590225,74.841469 48.036880,75.287773 47.211990,75.741699 
z"/>
<path fill="#E71710" opacity="1.000000" stroke="none" 
	d="
M27.975597,47.650223 
	C27.310959,47.996372 26.588114,48.021294 25.496920,47.967476 
	C24.734972,47.686050 24.526848,47.358536 24.787220,46.410835 
	C26.285374,45.883827 27.131050,46.547894 27.975597,47.650223 
z"/>
<path fill="#E71710" opacity="1.000000" stroke="none" 
	d="
M22.071911,45.135014 
	C21.884972,44.838589 21.792999,44.423832 21.698593,44.231400 
	C21.830772,44.016342 22.057358,43.993713 22.621212,43.925438 
	C23.604185,44.360027 24.249889,44.840260 24.995617,45.609436 
	C25.095636,45.898384 24.860813,46.136410 24.743065,46.255093 
	C23.572996,46.721382 22.814625,46.330799 22.071911,45.135014 
z"/>
<path fill="#B02727" opacity="1.000000" stroke="none" 
	d="
M67.711487,43.120041 
	C68.225250,44.202568 67.621887,44.713661 66.271812,44.940887 
	C65.701515,43.793644 66.848656,43.723804 67.711487,43.120041 
z"/>
<path fill="#8C090A" opacity="1.000000" stroke="none" 
	d="
M27.111149,64.783676 
	C26.743153,65.696510 26.179762,65.158516 25.691690,64.884682 
	C25.636086,64.853477 25.778887,64.252899 25.850500,64.248421 
	C26.145399,64.229935 26.448332,64.339630 26.904984,64.645424 
	C27.061653,64.888657 27.098888,64.820518 27.111149,64.783676 
z"/>
<path fill="#B02727" opacity="1.000000" stroke="none" 
	d="
M69.436615,41.748901 
	C69.791206,42.512409 69.369385,42.918369 68.388779,43.093719 
	C68.428711,42.607258 68.787628,42.176586 69.436615,41.748901 
z"/>
<path fill="#B02727" opacity="1.000000" stroke="none" 
	d="
M65.761948,45.122540 
	C66.116501,45.618046 66.235367,46.259815 65.057739,46.183826 
	C65.105560,45.786781 65.339546,45.539879 65.761948,45.122540 
z"/>
<path fill="#DA0500" opacity="1.000000" stroke="none" 
	d="
M184.210022,53.517303 
	C184.023239,53.152843 184.238922,52.759331 184.735504,52.180588 
	C184.881775,52.492992 184.747131,52.990623 184.210022,53.517303 
z"/>
<path fill="#DC1812" opacity="1.000000" stroke="none" 
	d="
M48.979614,27.730953 
	C48.746460,27.781422 48.459915,27.556028 48.118004,27.053265 
	C48.350502,27.002293 48.638363,27.228693 48.979614,27.730953 
z"/>
<path fill="#9F0A0A" opacity="1.000000" stroke="none" 
	d="
M44.352325,18.776649 
	C43.994366,18.893896 43.409992,18.898018 43.894218,18.107315 
	C44.168613,18.153328 44.262806,18.320862 44.352325,18.776649 
z"/>
<path fill="#E71710" opacity="1.000000" stroke="none" 
	d="
M30.123249,50.135368 
	C29.677008,50.223106 29.331015,49.927280 29.014837,49.287666 
	C29.437601,49.213188 29.830549,49.482494 30.123249,50.135368 
z"/>
<path fill="#E71710" opacity="1.000000" stroke="none" 
	d="
M29.071047,48.652195 
	C28.684052,48.838570 28.308268,48.722523 27.975134,48.283066 
	C28.372610,48.089691 28.727434,48.219730 29.071047,48.652195 
z"/>
<path fill="#FDF4F4" opacity="1.000000" stroke="none" 
	d="
M178.047424,48.275860 
	C174.970627,48.826893 172.014664,48.918297 169.062561,49.080097 
	C166.318756,49.230488 166.425018,47.775715 167.355682,46.008701 
	C168.553116,43.735237 170.537476,42.774506 173.097076,42.907021 
	C176.252167,43.070374 177.936859,44.703186 178.047424,48.275860 
z"/>
<path fill="#B50908" opacity="1.000000" stroke="none" 
	d="
M49.971542,61.600178 
	C48.541626,62.612949 48.037357,63.827328 47.794933,65.580719 
	C46.956364,67.137688 46.178387,68.356750 45.372036,69.620277 
	C43.615078,69.227730 43.565601,67.466560 42.473785,66.184280 
	C41.806637,65.770012 41.501545,65.454994 41.387985,64.608246 
	C41.664295,62.873074 42.395786,61.692810 43.264572,60.215073 
	C44.624092,58.742062 46.227013,57.939079 46.973064,55.939476 
	C47.200737,55.451954 47.299187,55.259380 47.571777,54.791885 
	C48.932091,53.171772 49.472099,51.537430 49.936512,49.505333 
	C50.124691,48.979588 50.220570,48.776470 50.550934,48.331444 
	C51.037140,48.077805 51.288857,48.066086 51.918465,48.045906 
	C53.314476,49.353153 52.850346,50.920528 53.036140,52.730209 
	C52.650845,54.045677 51.544189,55.194584 53.876335,55.755547 
	C52.522663,57.591305 50.851059,59.097988 49.971542,61.600178 
z"/>
<path fill="#8C090A" opacity="1.000000" stroke="none" 
	d="
M54.343811,55.828804 
	C53.235600,55.672359 51.376915,56.905682 51.929562,54.270603 
	C52.462269,53.459690 52.754063,52.820755 53.557999,52.181351 
	C54.938034,52.107296 55.363888,48.737911 57.018593,51.757103 
	C56.274368,53.251312 55.437634,54.453659 54.343811,55.828804 
z"/>
<path fill="#730406" opacity="1.000000" stroke="none" 
	d="
M58.000343,59.000427 
	C57.906391,59.035271 57.812096,59.069679 57.858459,59.051697 
	C57.999119,58.999298 58.000000,59.000000 58.000343,59.000427 
z"/>
<path fill="#E61910" opacity="1.000000" stroke="none" 
	d="
M45.577835,38.515171 
	C48.336895,40.411648 49.485741,43.337181 49.937637,46.981323 
	C49.723614,48.063019 49.910168,48.739292 49.947514,49.781616 
	C49.826912,51.425770 49.619350,52.669582 48.058235,53.593094 
	C47.098354,53.726147 46.561554,53.604420 45.751308,53.039871 
	C43.775597,49.847843 45.918419,46.992931 45.491730,43.678562 
	C45.025414,41.798210 44.889347,40.348061 45.577835,38.515171 
z"/>
<path fill="#D76968" opacity="1.000000" stroke="none" 
	d="
M53.891846,51.596970 
	C53.436337,52.635567 53.002026,53.236412 52.296738,53.914928 
	C52.128498,52.290623 52.231236,50.588650 52.315166,48.462059 
	C52.019417,45.830795 51.742474,43.624142 51.712528,41.171150 
	C54.104496,44.051144 54.137932,47.580524 53.891846,51.596970 
z"/>
<path fill="#B50908" opacity="1.000000" stroke="none" 
	d="
M49.921875,32.224361 
	C51.551743,33.557549 52.642651,35.267204 51.280331,37.781731 
	C50.418476,37.190151 49.831779,36.384399 49.122086,35.297112 
	C48.824902,34.843559 48.650707,34.671539 48.736954,34.240643 
	C49.267662,33.483006 49.537922,32.984249 49.921875,32.224361 
z"/>
<path fill="#EA6D68" opacity="1.000000" stroke="none" 
	d="
M45.851490,38.118465 
	C45.851448,39.537735 45.869244,40.923401 45.873081,42.726471 
	C45.685200,43.259197 45.511280,43.374516 45.131432,43.254097 
	C43.459915,41.915276 44.187889,40.278099 43.883125,38.512756 
	C43.897129,37.482887 43.946777,36.823967 44.044487,35.848373 
	C44.407249,35.826881 44.721954,36.122063 45.102684,36.664635 
	C45.279987,37.114578 45.391262,37.317127 45.721394,37.788506 
	C45.940250,38.057335 45.869328,38.084866 45.851490,38.118465 
z"/>
<path fill="#A61515" opacity="1.000000" stroke="none" 
	d="
M48.755924,33.806953 
	C49.001328,34.153999 49.005249,34.326233 49.004135,34.757019 
	C48.198036,34.899055 47.307838,34.789310 47.176693,33.813828 
	C47.096107,33.214405 46.404995,32.223381 47.654812,32.078735 
	C47.878433,32.052853 48.224766,33.087284 48.755924,33.806953 
z"/>
<path fill="#F3D7D5" opacity="1.000000" stroke="none" 
	d="
M49.410904,49.229454 
	C49.280312,48.551155 49.366158,48.076206 49.673683,47.489639 
	C49.928761,47.685337 50.090157,47.893436 50.582489,48.045929 
	C50.785423,48.089527 50.805882,48.571293 50.737419,48.802467 
	C50.389523,49.343536 50.042309,49.476574 49.410904,49.229454 
z"/>
<path fill="#E61910" opacity="1.000000" stroke="none" 
	d="
M45.888451,37.822323 
	C45.692989,37.849911 45.445724,37.642490 45.183586,37.173546 
	C45.469009,37.060333 45.691658,37.285427 45.888451,37.822323 
z"/>
<path fill="#D01816" opacity="1.000000" stroke="none" 
	d="
M44.163765,59.756077 
	C43.540562,61.246849 43.079052,62.437767 42.380486,63.846283 
	C41.202831,64.016159 40.547913,63.435497 39.663773,62.624321 
	C38.615467,61.561165 38.558895,60.459332 38.212940,59.125729 
	C37.717899,58.109650 37.383797,57.370975 36.995529,56.328911 
	C37.538853,55.813679 38.136337,55.601837 38.914799,55.115948 
	C39.872746,54.574619 40.649715,54.307335 41.740059,54.043182 
	C44.080227,55.316475 43.662209,57.613403 44.163765,59.756077 
z"/>
<path fill="#250606" opacity="1.000000" stroke="none" 
	d="
M39.670097,61.961006 
	C40.597515,62.495480 41.187328,63.032242 41.960281,63.816444 
	C42.170052,64.478767 42.196678,64.893639 42.251083,65.620575 
	C40.932167,66.090485 39.644226,65.908234 38.042229,65.187935 
	C37.649132,65.107330 37.255039,65.147072 37.056206,65.130173 
	C36.893623,64.644142 36.929878,64.175018 36.962849,63.353462 
	C37.542439,62.179256 38.387329,61.956627 39.670097,61.961006 
z"/>
<path fill="#340101" opacity="1.000000" stroke="none" 
	d="
M39.887054,61.669205 
	C39.487343,62.904850 38.590195,62.997028 37.306145,62.999416 
	C35.040680,61.196789 38.215557,60.831326 38.001068,59.171219 
	C38.623474,59.692116 39.194946,60.535904 39.887054,61.669205 
z"/>
<path fill="#7B0A0B" opacity="1.000000" stroke="none" 
	d="
M21.775860,45.101654 
	C22.614494,45.257584 23.344015,45.676575 24.349428,46.234673 
	C24.749760,46.706081 24.874201,47.038391 25.063606,47.629715 
	C24.349104,47.925652 23.569635,47.962563 22.400673,48.007786 
	C21.715677,47.785030 21.420177,47.553967 20.968914,47.079308 
	C21.097681,46.345383 21.382215,45.855053 21.775860,45.101654 
z"/>
<path fill="#7B0A0B" opacity="1.000000" stroke="none" 
	d="
M32.998619,60.001091 
	C33.122524,60.142113 33.247810,60.282043 33.373093,60.421978 
	C33.285984,60.373428 33.198875,60.324879 33.056881,60.136864 
	C33.001991,59.997398 33.000000,60.000000 32.998619,60.001091 
z"/>
<path fill="#F7F0EF" opacity="1.000000" stroke="none" 
	d="
M44.345860,60.199493 
	C42.813717,58.452015 41.794724,56.786888 42.052689,54.353397 
	C43.135441,50.676598 44.663105,47.425323 44.851151,43.408325 
	C44.925499,43.018356 45.386814,43.121975 45.622967,43.132927 
	C45.900032,46.072552 45.940941,49.001232 46.042057,52.365028 
	C46.867329,53.752113 47.448566,54.813522 48.088982,56.258476 
	C47.413494,58.196575 46.831661,60.005409 44.345860,60.199493 
z"/>
<path fill="#F7F0EF" opacity="1.000000" stroke="none" 
	d="
M49.073181,49.337257 
	C49.522167,49.042027 49.849968,49.055424 50.423416,49.049973 
	C51.493073,51.730072 50.303169,53.965649 48.642853,56.378296 
	C47.803284,55.797310 47.517147,54.974770 47.744831,53.433880 
	C48.281521,51.752003 48.616711,50.700203 49.073181,49.337257 
z"/>
<path fill="#F3D7D5" opacity="1.000000" stroke="none" 
	d="
M47.639648,52.837902 
	C48.015663,53.639557 48.084999,54.475319 48.203495,55.942398 
	C48.252655,56.573715 48.210503,56.535652 48.215141,56.567520 
	C47.392159,55.675770 46.123478,55.054291 46.118587,53.178024 
	C46.512501,52.824097 46.922737,52.848053 47.639648,52.837902 
z"/>
</svg>